<?xml version="1.0" encoding="utf-8"?>
<!-- Generator: Adobe Illustrator 19.0.0, SVG Export Plug-In . SVG Version: 6.00 Build 0)  -->
<svg version="1.1" id="Layer_1" xmlns="http://www.w3.org/2000/svg" xmlns:xlink="http://www.w3.org/1999/xlink" x="0px" y="0px"
	 viewBox="-390 229 178 104" style="enable-background:new -390 229 178 104;" xml:space="preserve" preserveAspectRatio="none">
<style type="text/css">
	.st0{fill:url(#SVGID_1_);}
	.st1{fill:#FFFFFF;}
</style>
<linearGradient id="SVGID_1_" gradientUnits="userSpaceOnUse" x1="-285.778" y1="299.5553" x2="-356.3722" y2="222.7778" gradientTransform="matrix(1 0 0 -1 0 564)">
	<stop  offset="0" style="stop-color:#FF24C6"/>
	<stop  offset="0.8525" style="stop-color:#FF667E"/>
</linearGradient>
<rect x="-390" y="229" class="st0" width="178" height="104"/>
<g>
	<path class="st1" d="M-354.5,266.9c1.5-2.5,5.1-4,8.3-4c7,0,11.2,4.6,11.2,14.2c0,9.5-4.1,14.1-11.2,14.1c-3.1,0-6.6-1.2-8-3.7v7.4
		c0,1-0.5,1.4-1.4,1.4h-5.5c-1,0-1.4-0.5-1.4-1.4v-30c0-0.9,0.5-1.4,1.4-1.4h4.9c0.9,0,1.3,0.5,1.4,1.1L-354.5,266.9z M-348.7,284.8
		c3.5,0,5.3-2.1,5.3-7.7c0-5.6-1.8-7.7-5.3-7.7c-3.5,0-5.5,2.3-5.5,7.7C-354.2,282.5-352.3,284.8-348.7,284.8z"/>
	<path class="st1" d="M-307.2,289.2c0,1-0.5,1.4-1.4,1.4h-5.5c-1,0-1.4-0.5-1.4-1.4v-14.6c0-3.1-1.1-4.8-4.1-4.8
		c-3.4,0-4.9,2.3-4.9,5.4v14c0,0.9-0.5,1.4-1.4,1.4h-5.5c-0.9,0-1.4-0.5-1.4-1.4V256c0-0.9,0.5-1.4,1.4-1.4h5.5c1,0,1.4,0.5,1.4,1.4
		v10.7c1.2-1.9,3.8-3.8,8.2-3.8c6.4,0,9.1,3.7,9.1,10.2L-307.2,289.2L-307.2,289.2z"/>
	<path class="st1" d="M-295.8,259.3c0,1-0.4,1.4-1.4,1.4h-5.7c-1,0-1.4-0.5-1.4-1.4v-3.2c0-1,0.4-1.4,1.4-1.4h5.7
		c1,0,1.4,0.4,1.4,1.4V259.3z M-295.9,289.2c0,1-0.4,1.4-1.4,1.4h-5.6c-0.9,0-1.4-0.5-1.4-1.4v-24.4c0-0.9,0.5-1.4,1.4-1.4h5.6
		c1,0,1.4,0.5,1.4,1.4V289.2z"/>
	<path class="st1" d="M-267.2,289.2c0,1-0.5,1.4-1.4,1.4h-5.5c-1,0-1.4-0.5-1.4-1.4v-14.6c0-3.1-1-4.8-4-4.8c-3.3,0-4.9,2.1-4.9,5.4
		v14c0,1-0.5,1.4-1.4,1.4h-5.5c-1,0-1.4-0.5-1.4-1.4v-24.4c0-0.9,0.4-1.4,1.4-1.4h5c1,0,1.3,0.5,1.4,1.1l0.4,2.3c1.3-2,3.8-4,8.3-4
		c6.4,0,9,3.7,9,10.2L-267.2,289.2L-267.2,289.2z"/>
	<path class="st1" d="M-253,271.4l4.5-6.7c0.4-0.7,1.1-1.1,2.1-1.1h5.5c0.9,0,1.3,0.8,0.7,1.7l-8.5,11.7l8.8,12
		c0.6,0.9,0.3,1.7-0.7,1.7h-5.7c-1.1,0-1.7-0.5-2.1-1.1l-4.6-7.1l-4.7,7.1c-0.5,0.7-1.1,1.1-2.2,1.1h-5.5c-0.9,0-1.3-0.8-0.7-1.7
		l8.8-12l-8.5-11.7c-0.7-0.9-0.3-1.7,0.7-1.7h5.7c1.1,0,1.7,0.5,2.1,1.1L-253,271.4z"/>
</g>
<g>
	<g>
		<path class="st1" d="M-337.4,316.1c-0.9,0-1.7-0.2-2.3-0.4c-0.2-0.1-0.3-0.2-0.2-0.3l0.2-0.7c0.1-0.2,0.2-0.3,0.4-0.2
			c0.5,0.2,1,0.3,1.7,0.3c0.9,0,1.4-0.2,1.4-0.7c0-0.5-0.5-0.7-1.4-1.1c-1.1-0.4-2.2-0.7-2.2-2.2c0-1.3,0.9-2,2.7-2
			c0.9,0,1.7,0.2,2.2,0.4c0.2,0.1,0.3,0.2,0.2,0.4l-0.2,0.7c-0.1,0.2-0.2,0.3-0.4,0.2c-0.4-0.1-0.9-0.3-1.5-0.3
			c-0.8,0-1.2,0.2-1.2,0.7c0,0.5,0.6,0.7,1.4,1.1c1.2,0.4,2.2,0.9,2.2,2.2C-334.5,315.6-335.8,316.1-337.4,316.1z"/>
		<path class="st1" d="M-333.6,312.4c0-2.4,1.4-3.7,3.5-3.7c2.1,0,3.5,1.3,3.5,3.7c0,2.4-1.4,3.7-3.5,3.7
			C-332.2,316.1-333.6,314.9-333.6,312.4z M-328.4,312.4c0-1.5-0.6-2.2-1.7-2.2s-1.7,0.7-1.7,2.2s0.6,2.2,1.7,2.2
			S-328.4,314-328.4,312.4z"/>
		<path class="st1" d="M-320.6,309.1v-1.6c0-0.2,0.1-0.3,0.3-0.3h1.1c0.2,0,0.3,0.1,0.3,0.3v1.6h1.5c0.2,0,0.3,0.1,0.3,0.3v0.7
			c0,0.2-0.1,0.3-0.3,0.3h-1.5v3.2c0,0.8,0.2,1,0.9,1c0.2,0,0.4-0.1,0.6-0.1c0.2,0,0.3,0.1,0.3,0.3l0,0.8c0,0.2-0.1,0.3-0.3,0.3
			c-0.2,0.1-0.7,0.1-1.1,0.1c-1.5,0-2.2-0.6-2.2-2.2v-3.4h-2.4v5.2c0,0.2-0.1,0.3-0.3,0.3h-1.1c-0.2,0-0.3-0.1-0.3-0.3v-5.2h-0.7
			c-0.2,0-0.3-0.1-0.3-0.3v-0.7c0-0.2,0.1-0.3,0.3-0.3h0.7v-0.6c0-1.3,0.7-2,2.1-2c0.4,0,0.8,0.1,1,0.1c0.1,0.1,0.3,0.1,0.3,0.3v0.6
			c0,0.2-0.1,0.3-0.3,0.3c-0.2,0-0.4-0.1-0.6-0.1c-0.5,0-0.7,0.2-0.7,0.8v0.5C-323,309.1-320.6,309.1-320.6,309.1z"/>
		<path class="st1" d="M-310.6,308.9c0.2,0,0.3,0.1,0.3,0.3l1.1,3.6l0.3,1.4h0l0.3-1.4l1-3.6c0.1-0.2,0.1-0.3,0.4-0.3h1.2
			c0.2,0,0.3,0.1,0.2,0.3l-1.9,6.4c-0.1,0.2-0.2,0.3-0.4,0.3h-1.2c-0.2,0-0.3-0.1-0.4-0.3l-1-3.2l-0.4-1.4h0l-0.4,1.4l-1,3.2
			c-0.1,0.2-0.2,0.3-0.4,0.3h-1.2c-0.2,0-0.3-0.1-0.4-0.3l-1.9-6.4c-0.1-0.2,0-0.3,0.2-0.3h1.2c0.2,0,0.3,0.1,0.4,0.3l1,3.6l0.3,1.4
			h0l0.3-1.4l1.1-3.6c0-0.1,0.1-0.3,0.3-0.3H-310.6z"/>
		<path class="st1" d="M-298.9,315.7c0,0.2-0.1,0.3-0.3,0.3h-1c-0.2,0-0.3-0.1-0.3-0.3l-0.1-0.7c-0.3,0.5-0.9,1.1-2.4,1.1
			c-1.4,0-2.3-0.7-2.3-2c0-2,1.9-2.3,4.6-2.3v-0.3c0-0.8-0.5-1.2-1.5-1.2c-0.8,0-1.4,0.2-2,0.4c-0.2,0.1-0.3,0-0.4-0.2l-0.2-0.7
			c-0.1-0.2,0-0.3,0.2-0.4c0.7-0.3,1.7-0.5,2.7-0.5c2.1,0,3,0.9,3,2.5L-298.9,315.7L-298.9,315.7z M-300.6,312.7
			c-1.8,0.1-3,0.2-3,1.2c0,0.5,0.4,0.9,1.2,0.9c1.2,0,1.8-0.7,1.8-1.6C-300.6,313.3-300.6,312.7-300.6,312.7z"/>
		<path class="st1" d="M-295.9,308.9c0.2,0,0.3,0.1,0.3,0.3l0.1,1.1c0.3-0.6,1-1.4,2.1-1.4c0.2,0,0.3,0.1,0.3,0.3v1.2
			c0,0.2-0.1,0.2-0.3,0.2c-0.1,0-0.2,0-0.4,0c-1,0-1.7,0.9-1.7,2v3.1c0,0.2-0.1,0.3-0.3,0.3h-1.1c-0.2,0-0.3-0.1-0.3-0.3v-6.4
			c0-0.2,0.1-0.3,0.3-0.3C-296.9,308.9-295.9,308.9-295.9,308.9z"/>
		<path class="st1" d="M-286.6,314.4c0.2-0.1,0.3,0,0.4,0.2l0.2,0.6c0.1,0.2,0,0.3-0.2,0.4c-0.6,0.3-1.4,0.5-2.3,0.5
			c-2.4,0-3.8-1.4-3.8-3.7c0-2.4,1.3-3.7,3.4-3.7c2.1,0,3.2,1.4,3.2,3.3v0.7c0,0.2-0.1,0.3-0.3,0.3h-4.5c0.1,1.1,0.9,1.7,2.2,1.7
			C-287.7,314.8-287.1,314.7-286.6,314.4z M-290.5,312h3.3v-0.1c0-1.1-0.5-1.8-1.6-1.8C-289.9,310.1-290.5,310.7-290.5,312z"/>
		<path class="st1" d="M-278.5,315.7c0,0.2-0.1,0.3-0.3,0.3h-1.2c-0.2,0-0.3-0.1-0.3-0.3v-8.8c0-0.2,0.1-0.3,0.3-0.3h1.2
			c0.2,0,0.3,0.1,0.3,0.3V315.7z"/>
		<path class="st1" d="M-270.8,315.7c0,0.2-0.1,0.3-0.3,0.3h-1c-0.2,0-0.3-0.1-0.3-0.3l-0.1-0.7c-0.3,0.5-0.9,1.1-2.4,1.1
			c-1.4,0-2.3-0.7-2.3-2c0-2,1.9-2.3,4.6-2.3v-0.3c0-0.8-0.5-1.2-1.5-1.2c-0.8,0-1.4,0.2-2,0.4c-0.2,0.1-0.3,0-0.4-0.2l-0.2-0.7
			c-0.1-0.2,0-0.3,0.2-0.4c0.7-0.3,1.7-0.5,2.7-0.5c2.1,0,3,0.9,3,2.5L-270.8,315.7L-270.8,315.7z M-272.5,312.7
			c-1.8,0.1-3,0.2-3,1.2c0,0.5,0.4,0.9,1.2,0.9c1.2,0,1.8-0.7,1.8-1.6V312.7L-272.5,312.7z"/>
		<path class="st1" d="M-267.4,315.7c0,0.1-0.1,0.3-0.3,0.3h-1.1c-0.2,0-0.3-0.1-0.3-0.3v-8.8c0-0.2,0.1-0.3,0.3-0.3h1.1
			c0.2,0,0.3,0.1,0.3,0.3v3c0.4-0.7,1.3-1.1,2.2-1.1c1.8,0,3,1.2,3,3.7c0,2.5-1.1,3.7-3,3.7c-0.9,0-1.9-0.4-2.3-1.1L-267.4,315.7z
			 M-265.6,314.7c1.1,0,1.7-0.6,1.7-2.2s-0.6-2.2-1.7-2.2c-1.1,0-1.7,0.7-1.7,2.2S-266.7,314.7-265.6,314.7z"/>
	</g>
</g>
</svg>
